<svg width="64" height="64" viewBox="0 0 64 64" xmlns="http://www.w3.org/2000/svg">
  <rect x="0" y="0" width="64" height="64" rx="16" fill="#F59E0B"/>
  <path
    d="M32 12
       C33.5 12 34.5 13.5 35 15
       L38.5 24
       C39 25.5 40.5 26.5 42 26.5
       L51.5 27.5
       C53 27.5 54 29 53 30.5
       L46 37.5
       C45 38.5 44.5 40 45 41.5
       L47 51
       C47.5 52.5 46 53.5 44.5 52.5
       L36 48
       C34.5 47 29.5 47 28 48
       L19.5 52.5
       C18 53.5 16.5 52.5 17 51
       L19 41.5
       C19.5 40 19 38.5 18 37.5
       L11 30.5
       C10 29 11 27.5 12.5 27.5
       L22 26.5
       C23.5 26.5 25 25.5 25.5 24
       L29 15
       C29.5 13.5 30.5 12 32 12
       Z"
    fill="#FFFFFF"/>
</svg>
